<svg xmlns="http://www.w3.org/2000/svg" xml:space="preserve" style="fill-rule:evenodd;clip-rule:evenodd;stroke-linejoin:round;stroke-miterlimit:2" viewBox="0 0 432 324"><path d="M.557-.41v.118q0 .075-.018.132a.3.3 0 0 1-.052.094.2.2 0 0 1-.081.057.3.3 0 0 1-.208 0A.23.23 0 0 1 .064-.16a.4.4 0 0 1-.018-.132V-.41q0-.078.018-.136a.3.3 0 0 1 .052-.096.2.2 0 0 1 .081-.059.27.27 0 0 1 .208 0 .2.2 0 0 1 .082.059q.033.038.052.096a.5.5 0 0 1 .018.136m-.142.118v-.119a.4.4 0 0 0-.007-.087.2.2 0 0 0-.022-.059.1.1 0 0 0-.036-.034.1.1 0 0 0-.049-.011.1.1 0 0 0-.049.011.1.1 0 0 0-.035.034.2.2 0 0 0-.022.059.4.4 0 0 0-.007.087v.119q0 .048.007.084a.2.2 0 0 0 .022.056q.015.022.036.033a.1.1 0 0 0 .049.01.1.1 0 0 0 .049-.01.1.1 0 0 0 .035-.033.2.2 0 0 0 .022-.056.4.4 0 0 0 .007-.084" style="fill:currentColor;fill-rule:nonzero" transform="matrix(85.76429 0 0 97.23065 -3.929 322.386)"/><path d="M.051-.75h.136v.628L.178 0H.051zm.411.468v.035a.5.5 0 0 1-.01.112.2.2 0 0 1-.031.08.13.13 0 0 1-.053.049.2.2 0 0 1-.076.016.12.12 0 0 1-.068-.019.15.15 0 0 1-.048-.052.4.4 0 0 1-.031-.079 1 1 0 0 1-.017-.099V-.29a1 1 0 0 1 .017-.098.3.3 0 0 1 .031-.079.13.13 0 0 1 .047-.052.12.12 0 0 1 .068-.019q.045 0 .077.016.033.016.053.049a.2.2 0 0 1 .031.08q.01.048.01.111m-.136.035v-.035L.323-.345a.2.2 0 0 0-.011-.044.06.06 0 0 0-.022-.026.1.1 0 0 0-.038-.009.1.1 0 0 0-.035.008.1.1 0 0 0-.024.024.1.1 0 0 0-.015.036.2.2 0 0 0-.005.045v.093a.2.2 0 0 0 .008.059.1.1 0 0 0 .025.04.07.07 0 0 0 .047.015.1.1 0 0 0 .037-.008.05.05 0 0 0 .022-.025.2.2 0 0 0 .011-.044z" style="fill:currentColor;fill-rule:nonzero" transform="matrix(85.76429 0 0 97.23065 47.832 322.386)"/><path d="M.187-.411V0H.051v-.528H.18zm.125-.121L.31-.396.288-.399.265-.4a.1.1 0 0 0-.039.007.1.1 0 0 0-.026.021.1.1 0 0 0-.016.035.2.2 0 0 0-.007.046l-.026-.01q0-.051.008-.095a.3.3 0 0 1 .024-.075.14.14 0 0 1 .039-.049.1.1 0 0 1 .052-.018l.02.002z" style="fill:currentColor;fill-rule:nonzero" transform="matrix(85.76429 0 0 97.23065 90.295 322.386)"/><path d="M.264.01a.3.3 0 0 1-.096-.017.2.2 0 0 1-.071-.048.2.2 0 0 1-.044-.076.3.3 0 0 1-.015-.103v-.043q0-.064.015-.114a.2.2 0 0 1 .041-.081.2.2 0 0 1 .067-.05.2.2 0 0 1 .088-.016q.05 0 .088.016A.16.16 0 0 1 .4-.473a.2.2 0 0 1 .038.081.5.5 0 0 1 .012.111v.062H.096v-.096h.22v-.012a.2.2 0 0 0-.007-.054.06.06 0 0 0-.022-.032Q.273-.425.249-.424a.1.1 0 0 0-.035.008.06.06 0 0 0-.023.026.2.2 0 0 0-.012.045l-.004.068v.043q0 .037.007.061.006.025.019.041.012.015.03.021a.15.15 0 0 0 .157-.041l.055.083a.2.2 0 0 1-.099.067.3.3 0 0 1-.08.012" style="fill:currentColor;fill-rule:nonzero" transform="matrix(85.76429 0 0 97.23065 117.794 322.386)"/><path d="M.187-.411V0H.051v-.528H.18zm.125-.121L.31-.396.288-.399.265-.4a.1.1 0 0 0-.039.007.1.1 0 0 0-.026.021.1.1 0 0 0-.016.035.2.2 0 0 0-.007.046l-.026-.01q0-.051.008-.095a.3.3 0 0 1 .024-.075.14.14 0 0 1 .039-.049.1.1 0 0 1 .052-.018l.02.002z" style="fill:currentColor;fill-rule:nonzero" transform="matrix(85.76429 0 0 97.23065 158.833 322.386)"/><path d="M.035-.246v-.036a.4.4 0 0 1 .015-.11.2.2 0 0 1 .043-.08.2.2 0 0 1 .067-.049.2.2 0 0 1 .088-.017q.05 0 .089.017a.2.2 0 0 1 .067.049.2.2 0 0 1 .043.08.4.4 0 0 1 .015.11v.036a.4.4 0 0 1-.015.109.2.2 0 0 1-.043.081.2.2 0 0 1-.067.049.2.2 0 0 1-.088.017.2.2 0 0 1-.088-.017.2.2 0 0 1-.068-.049.2.2 0 0 1-.043-.081.4.4 0 0 1-.015-.109m.137-.036v.036q0 .037.005.063a.1.1 0 0 0 .015.045q.01.018.024.026a.07.07 0 0 0 .066 0 .06.06 0 0 0 .024-.026.2.2 0 0 0 .015-.045.4.4 0 0 0 .004-.063v-.036A.3.3 0 0 0 .32-.345a.2.2 0 0 0-.015-.044.1.1 0 0 0-.024-.026.06.06 0 0 0-.065 0 .1.1 0 0 0-.024.026.1.1 0 0 0-.015.044.4.4 0 0 0-.005.063" style="fill:currentColor;fill-rule:nonzero" transform="matrix(85.76429 0 0 97.23065 185.532 322.386)"/><path d="M.292-.219v-.492h.142v.492a.26.26 0 0 1-.027.122.19.19 0 0 1-.178.107.2.2 0 0 1-.106-.024.2.2 0 0 1-.074-.072.26.26 0 0 1-.026-.124h.143q0 .038.008.06a.06.06 0 0 0 .022.032q.015.009.033.009a.05.05 0 0 0 .034-.013.1.1 0 0 0 .021-.037.2.2 0 0 0 .008-.06" style="fill:currentColor;fill-rule:nonzero" transform="matrix(84.36473 0 0 95.64397 -1.905 237.122)"/><path d="M.264.01a.3.3 0 0 1-.096-.017.2.2 0 0 1-.071-.048.2.2 0 0 1-.044-.076.3.3 0 0 1-.015-.103v-.043q0-.064.015-.114a.2.2 0 0 1 .041-.081.2.2 0 0 1 .067-.05.2.2 0 0 1 .088-.016q.05 0 .088.016A.16.16 0 0 1 .4-.473a.2.2 0 0 1 .038.081.5.5 0 0 1 .012.111v.062H.096v-.096h.22v-.012a.2.2 0 0 0-.007-.054.06.06 0 0 0-.022-.032Q.273-.425.249-.424a.1.1 0 0 0-.035.008.06.06 0 0 0-.023.026.2.2 0 0 0-.012.045l-.004.068v.043q0 .037.007.061.006.025.019.041.012.015.03.021a.15.15 0 0 0 .157-.041l.055.083a.2.2 0 0 1-.099.067.3.3 0 0 1-.08.012" style="fill:currentColor;fill-rule:nonzero" transform="matrix(84.36473 0 0 95.64397 39.454 237.122)"/><path d="M.285-.143a.04.04 0 0 0-.009-.024.4.4 0 0 0-.082-.048l-.065-.03A.2.2 0 0 1 .082-.28a.1.1 0 0 1-.029-.043.2.2 0 0 1-.009-.056.2.2 0 0 1 .012-.062.14.14 0 0 1 .036-.05.18.18 0 0 1 .133-.047q.06 0 .103.021.042.02.065.058a.15.15 0 0 1 .024.086H.28a.1.1 0 0 0-.006-.031.04.04 0 0 0-.017-.022.1.1 0 0 0-.032-.008l-.026.006a.04.04 0 0 0-.018.017.05.05 0 0 0-.002.044l.015.016.027.016.043.019a.4.4 0 0 1 .087.042.15.15 0 0 1 .05.053.15.15 0 0 1 .017.074.14.14 0 0 1-.013.063.14.14 0 0 1-.039.05.2.2 0 0 1-.061.033.3.3 0 0 1-.079.011.2.2 0 0 1-.108-.026.17.17 0 0 1-.089-.147h.13a.1.1 0 0 0 .01.041q.009.015.025.02t.034.006A.1.1 0 0 0 .26-.101a.04.04 0 0 0 .019-.016z" style="fill:currentColor;fill-rule:nonzero" transform="matrix(84.36473 0 0 95.64397 79.824 237.122)"/><path d="M.306-.127v-.401h.137V0H.315zm.016-.109L.36-.237a.5.5 0 0 1-.01.099.3.3 0 0 1-.031.078.2.2 0 0 1-.051.051.14.14 0 0 1-.073.019.2.2 0 0 1-.06-.011.1.1 0 0 1-.046-.035.2.2 0 0 1-.031-.061.3.3 0 0 1-.01-.089v-.342h.137v.343q0 .021.003.036l.011.025q.007.01.016.014l.021.005a.07.07 0 0 0 .051-.017.1.1 0 0 0 .027-.047.3.3 0 0 0 .008-.067M.177-.599.273-.75h.153l-.135.151z" style="fill:currentColor;fill-rule:nonzero" transform="matrix(84.36473 0 0 95.64397 118.134 237.122)"/><path d="M.285-.143a.04.04 0 0 0-.009-.024.4.4 0 0 0-.082-.048l-.065-.03A.2.2 0 0 1 .082-.28a.1.1 0 0 1-.029-.043.2.2 0 0 1-.009-.056.2.2 0 0 1 .012-.062.14.14 0 0 1 .036-.05.18.18 0 0 1 .133-.047q.06 0 .103.021.042.02.065.058a.15.15 0 0 1 .024.086H.28a.1.1 0 0 0-.006-.031.04.04 0 0 0-.017-.022.1.1 0 0 0-.032-.008l-.026.006a.04.04 0 0 0-.018.017.05.05 0 0 0-.002.044l.015.016.027.016.043.019a.4.4 0 0 1 .087.042.15.15 0 0 1 .05.053.15.15 0 0 1 .017.074.14.14 0 0 1-.013.063.14.14 0 0 1-.039.05.2.2 0 0 1-.061.033.3.3 0 0 1-.079.011.2.2 0 0 1-.108-.026.17.17 0 0 1-.089-.147h.13a.1.1 0 0 0 .01.041q.009.015.025.02t.034.006A.1.1 0 0 0 .26-.101a.04.04 0 0 0 .019-.016z" style="fill:currentColor;fill-rule:nonzero" transform="matrix(84.36473 0 0 95.64397 159.616 237.122)"/><path d="M.377-.711H.52v.488q0 .083-.03.134a.2.2 0 0 1-.083.075.3.3 0 0 1-.121.024.3.3 0 0 1-.122-.024.2.2 0 0 1-.082-.075.26.26 0 0 1-.03-.134v-.488h.143v.488q0 .046.01.072a.07.07 0 0 0 .031.034q.02.008.05.008t.05-.008a.06.06 0 0 0 .03-.034.2.2 0 0 0 .011-.072z" style="fill:currentColor;fill-rule:nonzero" transform="matrix(84.48235 0 0 96.8656 1.11 154.43)"/><path d="M.185-.416V0H.048v-.528h.128zm-.02.134-.037.001a.4.4 0 0 1 .011-.107.3.3 0 0 1 .036-.081.15.15 0 0 1 .128-.069q.032 0 .057.011a.1.1 0 0 1 .044.034.2.2 0 0 1 .029.062.4.4 0 0 1 .01.095V0H.306v-.337A.2.2 0 0 0 .299-.39a.05.05 0 0 0-.021-.026.1.1 0 0 0-.034-.008.06.06 0 0 0-.034.011.1.1 0 0 0-.026.03.2.2 0 0 0-.015.045.3.3 0 0 0-.004.056" style="fill:currentColor;fill-rule:nonzero" transform="matrix(84.48235 0 0 96.8656 49.333 154.43)"/><path d="M.194-.528V0H.057v-.528zM.051-.665a.07.07 0 0 1 .02-.053.08.08 0 0 1 .055-.02q.034 0 .054.02t.02.053a.07.07 0 0 1-.074.073.07.07 0 0 1-.055-.021.07.07 0 0 1-.02-.052" style="fill:currentColor;fill-rule:nonzero" transform="matrix(84.48235 0 0 96.8656 90.914 154.43)"/><path d="m.207-.106.084-.422h.143L.289 0H.204zM.156-.528l.087.423L.244 0H.158L.013-.528z" style="fill:currentColor;fill-rule:nonzero" transform="matrix(84.48235 0 0 96.8656 112.2 154.43)"/><path d="M.264.01a.3.3 0 0 1-.096-.017.2.2 0 0 1-.071-.048.2.2 0 0 1-.044-.076.3.3 0 0 1-.015-.103v-.043q0-.064.015-.114a.2.2 0 0 1 .041-.081.2.2 0 0 1 .067-.05.2.2 0 0 1 .088-.016q.05 0 .088.016A.16.16 0 0 1 .4-.473a.2.2 0 0 1 .038.081.5.5 0 0 1 .012.111v.062H.096v-.096h.22v-.012a.2.2 0 0 0-.007-.054.06.06 0 0 0-.022-.032Q.273-.425.249-.424a.1.1 0 0 0-.035.008.06.06 0 0 0-.023.026.2.2 0 0 0-.012.045l-.004.068v.043q0 .037.007.061.006.025.019.041.012.015.03.021a.15.15 0 0 0 .157-.041l.055.083a.2.2 0 0 1-.099.067.3.3 0 0 1-.08.012" style="fill:currentColor;fill-rule:nonzero" transform="matrix(84.48235 0 0 96.8656 149.5 154.43)"/><path d="M.187-.411V0H.051v-.528H.18zm.125-.121L.31-.396.288-.399.265-.4a.1.1 0 0 0-.039.007.1.1 0 0 0-.026.021.1.1 0 0 0-.016.035.2.2 0 0 0-.007.046l-.026-.01q0-.051.008-.095a.3.3 0 0 1 .024-.075.14.14 0 0 1 .039-.049.1.1 0 0 1 .052-.018l.02.002z" style="fill:currentColor;fill-rule:nonzero" transform="matrix(84.48235 0 0 96.8656 189.926 154.43)"/><path d="M.285-.143a.04.04 0 0 0-.009-.024.4.4 0 0 0-.082-.048l-.065-.03A.2.2 0 0 1 .082-.28a.1.1 0 0 1-.029-.043.2.2 0 0 1-.009-.056.2.2 0 0 1 .012-.062.14.14 0 0 1 .036-.05.18.18 0 0 1 .133-.047q.06 0 .103.021.042.02.065.058a.15.15 0 0 1 .024.086H.28a.1.1 0 0 0-.006-.031.04.04 0 0 0-.017-.022.1.1 0 0 0-.032-.008l-.026.006a.04.04 0 0 0-.018.017.05.05 0 0 0-.002.044l.015.016.027.016.043.019a.4.4 0 0 1 .087.042.15.15 0 0 1 .05.053.15.15 0 0 1 .017.074.14.14 0 0 1-.013.063.14.14 0 0 1-.039.05.2.2 0 0 1-.061.033.3.3 0 0 1-.079.011.2.2 0 0 1-.108-.026.17.17 0 0 1-.089-.147h.13a.1.1 0 0 0 .01.041q.009.015.025.02t.034.006A.1.1 0 0 0 .26-.101a.04.04 0 0 0 .019-.016z" style="fill:currentColor;fill-rule:nonzero" transform="matrix(84.48235 0 0 96.8656 217.895 154.43)"/><path d="M.194-.528V0H.057v-.528zM.051-.665a.07.07 0 0 1 .02-.053.08.08 0 0 1 .055-.02q.034 0 .054.02t.02.053a.07.07 0 0 1-.074.073.07.07 0 0 1-.055-.021.07.07 0 0 1-.02-.052" style="fill:currentColor;fill-rule:nonzero" transform="matrix(84.48235 0 0 96.8656 256.258 154.43)"/><path d="M.281-.528v.103H.012v-.103zM.074-.659H.21v.498q0 .021.004.034a.03.03 0 0 0 .014.016l.024.005.019-.002.013-.002v.107L.25.006A.2.2 0 0 1 .208.01a.15.15 0 0 1-.071-.016.1.1 0 0 1-.047-.05.2.2 0 0 1-.016-.091z" style="fill:currentColor;fill-rule:nonzero" transform="matrix(84.48235 0 0 96.8656 277.544 154.43)"/><path d="M.284-.121v-.245a.1.1 0 0 0-.006-.038L.262-.425.235-.431a.1.1 0 0 0-.03.007l-.017.021a.1.1 0 0 0-.006.033H.045q0-.035.014-.065a.2.2 0 0 1 .038-.054.2.2 0 0 1 .062-.036.2.2 0 0 1 .08-.013q.052 0 .094.018.041.018.064.056a.2.2 0 0 1 .024.1v.236q0 .043.005.072a.2.2 0 0 0 .014.048V0H.302a.2.2 0 0 1-.014-.055zM.3-.323l.001.082h-.05a.1.1 0 0 0-.059.024.1.1 0 0 0-.014.027.1.1 0 0 0-.005.032q0 .02.006.033l.016.02.025.007A.08.08 0 0 0 .284-.13q.008-.013.005-.025l.031.054a.2.2 0 0 1-.041.073.12.12 0 0 1-.09.038.16.16 0 0 1-.077-.02.14.14 0 0 1-.055-.055.16.16 0 0 1-.021-.083.2.2 0 0 1 .013-.072.2.2 0 0 1 .039-.056.2.2 0 0 1 .065-.035.3.3 0 0 1 .093-.012z" style="fill:currentColor;fill-rule:nonzero" transform="matrix(84.48235 0 0 96.8656 303.45 154.43)"/><path d="M.187-.411V0H.051v-.528H.18zm.125-.121L.31-.396.288-.399.265-.4a.1.1 0 0 0-.039.007.1.1 0 0 0-.026.021.1.1 0 0 0-.016.035.2.2 0 0 0-.007.046l-.026-.01q0-.051.008-.095a.3.3 0 0 1 .024-.075.14.14 0 0 1 .039-.049.1.1 0 0 1 .052-.018l.02.002z" style="fill:currentColor;fill-rule:nonzero" transform="matrix(84.48235 0 0 96.8656 343.257 154.43)"/><path d="M.194-.528V0H.057v-.528zM.051-.665a.07.07 0 0 1 .02-.053.08.08 0 0 1 .055-.02q.034 0 .054.02t.02.053a.07.07 0 0 1-.074.073.07.07 0 0 1-.055-.021.07.07 0 0 1-.02-.052" style="fill:currentColor;fill-rule:nonzero" transform="matrix(84.48235 0 0 96.8656 371.225 154.43)"/><path d="M.035-.246v-.036a.4.4 0 0 1 .015-.11.2.2 0 0 1 .043-.08.2.2 0 0 1 .067-.049.2.2 0 0 1 .088-.017q.05 0 .089.017a.2.2 0 0 1 .067.049.2.2 0 0 1 .043.08.4.4 0 0 1 .015.11v.036a.4.4 0 0 1-.015.109.2.2 0 0 1-.043.081.2.2 0 0 1-.067.049.2.2 0 0 1-.088.017.2.2 0 0 1-.088-.017.2.2 0 0 1-.068-.049.2.2 0 0 1-.043-.081.4.4 0 0 1-.015-.109m.137-.036v.036q0 .037.005.063a.1.1 0 0 0 .015.045q.01.018.024.026a.07.07 0 0 0 .066 0 .06.06 0 0 0 .024-.026.2.2 0 0 0 .015-.045.4.4 0 0 0 .004-.063v-.036A.3.3 0 0 0 .32-.345a.2.2 0 0 0-.015-.044.1.1 0 0 0-.024-.026.06.06 0 0 0-.065 0 .1.1 0 0 0-.024.026.1.1 0 0 0-.015.044.4.4 0 0 0-.005.063" style="fill:currentColor;fill-rule:nonzero" transform="matrix(84.48235 0 0 96.8656 392.51 154.43)"/><path d="M.064-.711h.142V0H.064z" style="fill:currentColor;fill-rule:nonzero" transform="matrix(85.24177 0 0 96.63821 .076 71.352)"/><path d="M.185-.416V0H.048v-.528h.128zm-.02.134-.037.001a.4.4 0 0 1 .011-.107.3.3 0 0 1 .036-.081.15.15 0 0 1 .128-.069q.032 0 .057.011a.1.1 0 0 1 .044.034.2.2 0 0 1 .029.062.4.4 0 0 1 .01.095V0H.306v-.337A.2.2 0 0 0 .299-.39a.05.05 0 0 0-.021-.026.1.1 0 0 0-.034-.008.06.06 0 0 0-.034.011.1.1 0 0 0-.026.03.2.2 0 0 0-.015.045.3.3 0 0 0-.004.056" style="fill:currentColor;fill-rule:nonzero" transform="matrix(85.24177 0 0 96.63821 23.093 71.352)"/><path d="M.285-.143a.04.04 0 0 0-.009-.024.4.4 0 0 0-.082-.048l-.065-.03A.2.2 0 0 1 .082-.28a.1.1 0 0 1-.029-.043.2.2 0 0 1-.009-.056.2.2 0 0 1 .012-.062.14.14 0 0 1 .036-.05.18.18 0 0 1 .133-.047q.06 0 .103.021.042.02.065.058a.15.15 0 0 1 .024.086H.28a.1.1 0 0 0-.006-.031.04.04 0 0 0-.017-.022.1.1 0 0 0-.032-.008l-.026.006a.04.04 0 0 0-.018.017.05.05 0 0 0-.002.044l.015.016.027.016.043.019a.4.4 0 0 1 .087.042.15.15 0 0 1 .05.053.15.15 0 0 1 .017.074.14.14 0 0 1-.013.063.14.14 0 0 1-.039.05.2.2 0 0 1-.061.033.3.3 0 0 1-.079.011.2.2 0 0 1-.108-.026.17.17 0 0 1-.089-.147h.13a.1.1 0 0 0 .01.041q.009.015.025.02t.034.006A.1.1 0 0 0 .26-.101a.04.04 0 0 0 .019-.016z" style="fill:currentColor;fill-rule:nonzero" transform="matrix(85.24177 0 0 96.63821 65.048 71.352)"/><path d="M.281-.528v.103H.012v-.103zM.074-.659H.21v.498q0 .021.004.034a.03.03 0 0 0 .014.016l.024.005.019-.002.013-.002v.107L.25.006A.2.2 0 0 1 .208.01a.15.15 0 0 1-.071-.016.1.1 0 0 1-.047-.05.2.2 0 0 1-.016-.091z" style="fill:currentColor;fill-rule:nonzero" transform="matrix(85.24177 0 0 96.63821 103.756 71.352)"/><path d="M.194-.528V0H.057v-.528zM.051-.665a.07.07 0 0 1 .02-.053.08.08 0 0 1 .055-.02q.034 0 .054.02t.02.053a.07.07 0 0 1-.074.073.07.07 0 0 1-.055-.021.07.07 0 0 1-.02-.052" style="fill:currentColor;fill-rule:nonzero" transform="matrix(85.24177 0 0 96.63821 129.895 71.352)"/><path d="M.281-.528v.103H.012v-.103zM.074-.659H.21v.498q0 .021.004.034a.03.03 0 0 0 .014.016l.024.005.019-.002.013-.002v.107L.25.006A.2.2 0 0 1 .208.01a.15.15 0 0 1-.071-.016.1.1 0 0 1-.047-.05.2.2 0 0 1-.016-.091z" style="fill:currentColor;fill-rule:nonzero" transform="matrix(85.24177 0 0 96.63821 151.372 71.352)"/><path d="M.306-.127v-.401h.137V0H.315zm.016-.109L.36-.237a.5.5 0 0 1-.01.099.3.3 0 0 1-.031.078.2.2 0 0 1-.051.051.14.14 0 0 1-.073.019.2.2 0 0 1-.06-.011.1.1 0 0 1-.046-.035.2.2 0 0 1-.031-.061.3.3 0 0 1-.01-.089v-.342h.137v.343q0 .021.003.036l.011.025q.007.01.016.014l.021.005a.07.07 0 0 0 .051-.017.1.1 0 0 0 .027-.047.3.3 0 0 0 .008-.067" style="fill:currentColor;fill-rule:nonzero" transform="matrix(85.24177 0 0 96.63821 177.51 71.352)"/><path d="M.281-.528v.103H.012v-.103zM.074-.659H.21v.498q0 .021.004.034a.03.03 0 0 0 .014.016l.024.005.019-.002.013-.002v.107L.25.006A.2.2 0 0 1 .208.01a.15.15 0 0 1-.071-.016.1.1 0 0 1-.047-.05.2.2 0 0 1-.016-.091z" style="fill:currentColor;fill-rule:nonzero" transform="matrix(85.24177 0 0 96.63821 219.424 71.352)"/><path d="M.035-.246v-.036a.4.4 0 0 1 .015-.11.2.2 0 0 1 .043-.08.2.2 0 0 1 .067-.049.2.2 0 0 1 .088-.017q.05 0 .089.017a.2.2 0 0 1 .067.049.2.2 0 0 1 .043.08.4.4 0 0 1 .015.11v.036a.4.4 0 0 1-.015.109.2.2 0 0 1-.043.081.2.2 0 0 1-.067.049.2.2 0 0 1-.088.017.2.2 0 0 1-.088-.017.2.2 0 0 1-.068-.049.2.2 0 0 1-.043-.081.4.4 0 0 1-.015-.109m.137-.036v.036q0 .037.005.063a.1.1 0 0 0 .015.045q.01.018.024.026a.07.07 0 0 0 .066 0 .06.06 0 0 0 .024-.026.2.2 0 0 0 .015-.045.4.4 0 0 0 .004-.063v-.036A.3.3 0 0 0 .32-.345a.2.2 0 0 0-.015-.044.1.1 0 0 0-.024-.026.06.06 0 0 0-.065 0 .1.1 0 0 0-.024.026.1.1 0 0 0-.015.044.4.4 0 0 0-.005.063" style="fill:currentColor;fill-rule:nonzero" transform="matrix(85.24177 0 0 96.63821 244.16 71.352)"/></svg>