<?xml version="1.0" encoding="UTF-8" standalone="no"?>
<!DOCTYPE svg PUBLIC "-//W3C//DTD SVG 1.1//EN" "http://www.w3.org/Graphics/SVG/1.1/DTD/svg11.dtd">
<svg xmlns="http://www.w3.org/2000/svg" xml:space="preserve" width="100%" height="100%" style="fill-rule:evenodd;clip-rule:evenodd;stroke-linejoin:round;stroke-miterlimit:2" viewBox="0 0 474 239"><path d="M.358-.187.355-.222A.1.1 0 0 0 .34-.251a.1.1 0 0 0-.031-.026.3.3 0 0 0-.054-.027L.178-.34a.4.4 0 0 1-.067-.043.2.2 0 0 1-.047-.059.2.2 0 0 1-.017-.08q0-.045.016-.082A.2.2 0 0 1 .11-.666a.2.2 0 0 1 .071-.041.3.3 0 0 1 .091-.014q.068 0 .118.029a.2.2 0 0 1 .078.077.23.23 0 0 1 .027.114H.353a.2.2 0 0 0-.008-.054.1.1 0 0 0-.028-.036.1.1 0 0 0-.047-.013.1.1 0 0 0-.046.011.1.1 0 0 0-.026.029.1.1 0 0 0-.009.043q0 .017.009.031a.1.1 0 0 0 .024.025q.015.011.036.021l.045.02a1 1 0 0 1 .086.042.3.3 0 0 1 .062.051.2.2 0 0 1 .037.063q.013.035.013.08t-.015.081a.2.2 0 0 1-.116.103.3.3 0 0 1-.185 0 .2.2 0 0 1-.077-.043.2.2 0 0 1-.053-.073.3.3 0 0 1-.019-.104h.143q0 .032.006.055a.1.1 0 0 0 .02.036q.014.014.032.02a.2.2 0 0 0 .045.006.1.1 0 0 0 .045-.01.06.06 0 0 0 .024-.029.1.1 0 0 0 .007-.041" style="fill:currentColor;fill-rule:nonzero" transform="matrix(85.76429 0 0 97.23063 -3.12 237.122)"/><path d="M.284-.121v-.245a.1.1 0 0 0-.006-.038L.262-.425.235-.431a.1.1 0 0 0-.03.007l-.017.021a.1.1 0 0 0-.006.033H.045q0-.035.014-.065a.2.2 0 0 1 .038-.054.2.2 0 0 1 .062-.036.2.2 0 0 1 .08-.013q.052 0 .094.018.041.018.064.056a.2.2 0 0 1 .024.1v.236q0 .043.005.072a.2.2 0 0 0 .014.048V0H.302a.2.2 0 0 1-.014-.055zM.3-.323l.001.082h-.05a.1.1 0 0 0-.059.024.1.1 0 0 0-.014.027.1.1 0 0 0-.005.032q0 .02.006.033l.016.02.025.007A.08.08 0 0 0 .284-.13q.008-.013.005-.025l.031.054a.2.2 0 0 1-.041.073.12.12 0 0 1-.09.038.16.16 0 0 1-.077-.02.14.14 0 0 1-.055-.055.16.16 0 0 1-.021-.083.2.2 0 0 1 .013-.072.2.2 0 0 1 .039-.056.2.2 0 0 1 .065-.035.3.3 0 0 1 .093-.012z" style="fill:currentColor;fill-rule:nonzero" transform="matrix(85.76429 0 0 97.23063 43.155 237.122)"/><path d="M.185-.416V0H.048v-.528h.128zm-.02.134-.037.001a.4.4 0 0 1 .011-.107.3.3 0 0 1 .036-.081.15.15 0 0 1 .128-.069q.032 0 .057.011a.1.1 0 0 1 .044.034.2.2 0 0 1 .029.062.4.4 0 0 1 .01.095V0H.306v-.337A.2.2 0 0 0 .299-.39a.05.05 0 0 0-.021-.026.1.1 0 0 0-.034-.008.06.06 0 0 0-.034.011.1.1 0 0 0-.026.03.2.2 0 0 0-.015.045.3.3 0 0 0-.004.056" style="fill:currentColor;fill-rule:nonzero" transform="matrix(85.76429 0 0 97.23063 83.566 237.122)"/><path d="M.201-.711V0H.057v-.711zm.222.302v.118H.165v-.118zM.45-.711v.119H.165v-.119z" style="fill:currentColor;fill-rule:nonzero" transform="matrix(85.76429 0 0 97.23063 145.544 237.122)"/><path d="M.187-.411V0H.051v-.528H.18zm.125-.121L.31-.396.288-.399.265-.4a.1.1 0 0 0-.039.007.1.1 0 0 0-.026.021.1.1 0 0 0-.016.035.2.2 0 0 0-.007.046l-.026-.01q0-.051.008-.095a.3.3 0 0 1 .024-.075.14.14 0 0 1 .039-.049.1.1 0 0 1 .052-.018l.02.002z" style="fill:currentColor;fill-rule:nonzero" transform="matrix(85.76429 0 0 97.23063 185.151 237.122)"/><path d="M.284-.121v-.245a.1.1 0 0 0-.006-.038L.262-.425.235-.431a.1.1 0 0 0-.03.007l-.017.021a.1.1 0 0 0-.006.033H.045q0-.035.014-.065a.2.2 0 0 1 .038-.054.2.2 0 0 1 .062-.036.2.2 0 0 1 .08-.013q.052 0 .094.018.041.018.064.056a.2.2 0 0 1 .024.1v.236q0 .043.005.072a.2.2 0 0 0 .014.048V0H.302a.2.2 0 0 1-.014-.055zM.3-.323l.001.082h-.05a.1.1 0 0 0-.059.024.1.1 0 0 0-.014.027.1.1 0 0 0-.005.032q0 .02.006.033l.016.02.025.007A.08.08 0 0 0 .284-.13q.008-.013.005-.025l.031.054a.2.2 0 0 1-.041.073.12.12 0 0 1-.09.038.16.16 0 0 1-.077-.02.14.14 0 0 1-.055-.055.16.16 0 0 1-.021-.083.2.2 0 0 1 .013-.072.2.2 0 0 1 .039-.056.2.2 0 0 1 .065-.035.3.3 0 0 1 .093-.012z" style="fill:currentColor;fill-rule:nonzero" transform="matrix(85.76429 0 0 97.23063 212.132 237.122)"/><path d="M.185-.416V0H.048v-.528h.128zm-.02.134-.037.001a.4.4 0 0 1 .011-.107.3.3 0 0 1 .036-.081.15.15 0 0 1 .128-.069q.032 0 .057.011a.1.1 0 0 1 .044.034.2.2 0 0 1 .029.062.4.4 0 0 1 .01.095V0H.306v-.337A.2.2 0 0 0 .299-.39a.05.05 0 0 0-.021-.026.1.1 0 0 0-.034-.008.06.06 0 0 0-.034.011.1.1 0 0 0-.026.03.2.2 0 0 0-.015.045.3.3 0 0 0-.004.056" style="fill:currentColor;fill-rule:nonzero" transform="matrix(85.76429 0 0 97.23063 252.544 237.122)"/><path d="M.242-.104a.1.1 0 0 0 .033-.008.05.05 0 0 0 .021-.025.1.1 0 0 0 .007-.046h.129a.2.2 0 0 1-.025.103.2.2 0 0 1-.068.067.2.2 0 0 1-.095.023.3.3 0 0 1-.093-.017.2.2 0 0 1-.065-.05.2.2 0 0 1-.039-.08.4.4 0 0 1-.012-.108v-.038q0-.061.012-.108a.2.2 0 0 1 .039-.08.16.16 0 0 1 .065-.05.24.24 0 0 1 .192.007q.042.023.065.069a.25.25 0 0 1 .024.114H.303a.2.2 0 0 0-.006-.051.1.1 0 0 0-.02-.031Q.263-.425.241-.424a.1.1 0 0 0-.037.009.1.1 0 0 0-.021.027.5.5 0 0 0-.012.105v.038q0 .035.003.062a.1.1 0 0 0 .009.044q.008.018.021.026a.1.1 0 0 0 .038.009" style="fill:currentColor;fill-rule:nonzero" transform="matrix(85.76429 0 0 97.23063 294.756 237.122)"/><path d="M.194-.528V0H.057v-.528zM.051-.665a.07.07 0 0 1 .02-.053.08.08 0 0 1 .055-.02q.034 0 .054.02t.02.053a.07.07 0 0 1-.074.073.07.07 0 0 1-.055-.021.07.07 0 0 1-.02-.052" style="fill:currentColor;fill-rule:nonzero" transform="matrix(85.76429 0 0 97.23063 334.204 237.122)"/><path d="M.285-.143a.04.04 0 0 0-.009-.024.4.4 0 0 0-.082-.048l-.065-.03A.2.2 0 0 1 .082-.28a.1.1 0 0 1-.029-.043.2.2 0 0 1-.009-.056.2.2 0 0 1 .012-.062.14.14 0 0 1 .036-.05.18.18 0 0 1 .133-.047q.06 0 .103.021.042.02.065.058a.15.15 0 0 1 .024.086H.28a.1.1 0 0 0-.006-.031.04.04 0 0 0-.017-.022.1.1 0 0 0-.032-.008l-.026.006a.04.04 0 0 0-.018.017.05.05 0 0 0-.002.044l.015.016.027.016.043.019a.4.4 0 0 1 .087.042.15.15 0 0 1 .05.053.15.15 0 0 1 .017.074.14.14 0 0 1-.013.063.14.14 0 0 1-.039.05.2.2 0 0 1-.061.033.3.3 0 0 1-.079.011.2.2 0 0 1-.108-.026.17.17 0 0 1-.089-.147h.13a.1.1 0 0 0 .01.041q.009.015.025.02t.034.006A.1.1 0 0 0 .26-.101a.04.04 0 0 0 .019-.016z" style="fill:currentColor;fill-rule:nonzero" transform="matrix(85.76429 0 0 97.23063 355.813 237.122)"/><path d="M.242-.104a.1.1 0 0 0 .033-.008.05.05 0 0 0 .021-.025.1.1 0 0 0 .007-.046h.129a.2.2 0 0 1-.025.103.2.2 0 0 1-.068.067.2.2 0 0 1-.095.023.3.3 0 0 1-.093-.017.2.2 0 0 1-.065-.05.2.2 0 0 1-.039-.08.4.4 0 0 1-.012-.108v-.038q0-.061.012-.108a.2.2 0 0 1 .039-.08.16.16 0 0 1 .065-.05.24.24 0 0 1 .192.007q.042.023.065.069a.25.25 0 0 1 .024.114H.303a.2.2 0 0 0-.006-.051.1.1 0 0 0-.02-.031Q.263-.425.241-.424a.1.1 0 0 0-.037.009.1.1 0 0 0-.021.027.5.5 0 0 0-.012.105v.038q0 .035.003.062a.1.1 0 0 0 .009.044q.008.018.021.026a.1.1 0 0 0 .038.009" style="fill:currentColor;fill-rule:nonzero" transform="matrix(85.76429 0 0 97.23063 394.758 237.122)"/><path d="M.035-.246v-.036a.4.4 0 0 1 .015-.11.2.2 0 0 1 .043-.08.2.2 0 0 1 .067-.049.2.2 0 0 1 .088-.017q.05 0 .089.017a.2.2 0 0 1 .067.049.2.2 0 0 1 .043.08.4.4 0 0 1 .015.11v.036a.4.4 0 0 1-.015.109.2.2 0 0 1-.043.081.2.2 0 0 1-.067.049.2.2 0 0 1-.088.017.2.2 0 0 1-.088-.017.2.2 0 0 1-.068-.049.2.2 0 0 1-.043-.081.4.4 0 0 1-.015-.109m.137-.036v.036q0 .037.005.063a.1.1 0 0 0 .015.045q.01.018.024.026a.07.07 0 0 0 .066 0 .06.06 0 0 0 .024-.026.2.2 0 0 0 .015-.045.4.4 0 0 0 .004-.063v-.036A.3.3 0 0 0 .32-.345a.2.2 0 0 0-.015-.044.1.1 0 0 0-.024-.026.06.06 0 0 0-.065 0 .1.1 0 0 0-.024.026.1.1 0 0 0-.015.044.4.4 0 0 0-.005.063" style="fill:currentColor;fill-rule:nonzero" transform="matrix(85.76429 0 0 97.23063 434.206 237.122)"/><path d="M.377-.711H.52v.488q0 .083-.03.134a.2.2 0 0 1-.083.075.3.3 0 0 1-.121.024.3.3 0 0 1-.122-.024.2.2 0 0 1-.082-.075.26.26 0 0 1-.03-.134v-.488h.143v.488q0 .046.01.072a.07.07 0 0 0 .031.034q.02.008.05.008t.05-.008a.06.06 0 0 0 .03-.034.2.2 0 0 0 .011-.072z" style="fill:currentColor;fill-rule:nonzero" transform="matrix(84.48235 0 0 96.8656 -.104 154.43)"/><path d="M.185-.416V0H.048v-.528h.128zm-.02.134-.037.001a.4.4 0 0 1 .011-.107.3.3 0 0 1 .036-.081.15.15 0 0 1 .128-.069q.032 0 .057.011a.1.1 0 0 1 .044.034.2.2 0 0 1 .029.062.4.4 0 0 1 .01.095V0H.306v-.337A.2.2 0 0 0 .299-.39a.05.05 0 0 0-.021-.026.1.1 0 0 0-.034-.008.06.06 0 0 0-.034.011.1.1 0 0 0-.026.03.2.2 0 0 0-.015.045.3.3 0 0 0-.004.056" style="fill:currentColor;fill-rule:nonzero" transform="matrix(84.48235 0 0 96.8656 48.118 154.43)"/><path d="M.194-.528V0H.057v-.528zM.051-.665a.07.07 0 0 1 .02-.053.08.08 0 0 1 .055-.02q.034 0 .054.02t.02.053a.07.07 0 0 1-.074.073.07.07 0 0 1-.055-.021.07.07 0 0 1-.02-.052" style="fill:currentColor;fill-rule:nonzero" transform="matrix(84.48235 0 0 96.8656 89.7 154.43)"/><path d="m.207-.106.084-.422h.143L.289 0H.204zM.156-.528l.087.423L.244 0H.158L.013-.528z" style="fill:currentColor;fill-rule:nonzero" transform="matrix(84.48235 0 0 96.8656 110.985 154.43)"/><path d="M.264.01a.3.3 0 0 1-.096-.017.2.2 0 0 1-.071-.048.2.2 0 0 1-.044-.076.3.3 0 0 1-.015-.103v-.043q0-.064.015-.114a.2.2 0 0 1 .041-.081.2.2 0 0 1 .067-.05.2.2 0 0 1 .088-.016q.05 0 .088.016A.16.16 0 0 1 .4-.473a.2.2 0 0 1 .038.081.5.5 0 0 1 .012.111v.062H.096v-.096h.22v-.012a.2.2 0 0 0-.007-.054.06.06 0 0 0-.022-.032Q.273-.425.249-.424a.1.1 0 0 0-.035.008.06.06 0 0 0-.023.026.2.2 0 0 0-.012.045l-.004.068v.043q0 .037.007.061.006.025.019.041.012.015.03.021a.15.15 0 0 0 .157-.041l.055.083a.2.2 0 0 1-.099.067.3.3 0 0 1-.08.012" style="fill:currentColor;fill-rule:nonzero" transform="matrix(84.48235 0 0 96.8656 148.286 154.43)"/><path d="M.187-.411V0H.051v-.528H.18zm.125-.121L.31-.396.288-.399.265-.4a.1.1 0 0 0-.039.007.1.1 0 0 0-.026.021.1.1 0 0 0-.016.035.2.2 0 0 0-.007.046l-.026-.01q0-.051.008-.095a.3.3 0 0 1 .024-.075.14.14 0 0 1 .039-.049.1.1 0 0 1 .052-.018l.02.002z" style="fill:currentColor;fill-rule:nonzero" transform="matrix(84.48235 0 0 96.8656 188.712 154.43)"/><path d="M.285-.143a.04.04 0 0 0-.009-.024.4.4 0 0 0-.082-.048l-.065-.03A.2.2 0 0 1 .082-.28a.1.1 0 0 1-.029-.043.2.2 0 0 1-.009-.056.2.2 0 0 1 .012-.062.14.14 0 0 1 .036-.05.18.18 0 0 1 .133-.047q.06 0 .103.021.042.02.065.058a.15.15 0 0 1 .024.086H.28a.1.1 0 0 0-.006-.031.04.04 0 0 0-.017-.022.1.1 0 0 0-.032-.008l-.026.006a.04.04 0 0 0-.018.017.05.05 0 0 0-.002.044l.015.016.027.016.043.019a.4.4 0 0 1 .087.042.15.15 0 0 1 .05.053.15.15 0 0 1 .017.074.14.14 0 0 1-.013.063.14.14 0 0 1-.039.05.2.2 0 0 1-.061.033.3.3 0 0 1-.079.011.2.2 0 0 1-.108-.026.17.17 0 0 1-.089-.147h.13a.1.1 0 0 0 .01.041q.009.015.025.02t.034.006A.1.1 0 0 0 .26-.101a.04.04 0 0 0 .019-.016z" style="fill:currentColor;fill-rule:nonzero" transform="matrix(84.48235 0 0 96.8656 216.68 154.43)"/><path d="M.194-.528V0H.057v-.528zM.051-.665a.07.07 0 0 1 .02-.053.08.08 0 0 1 .055-.02q.034 0 .054.02t.02.053a.07.07 0 0 1-.074.073.07.07 0 0 1-.055-.021.07.07 0 0 1-.02-.052" style="fill:currentColor;fill-rule:nonzero" transform="matrix(84.48235 0 0 96.8656 255.044 154.43)"/><path d="M.281-.528v.103H.012v-.103zM.074-.659H.21v.498q0 .021.004.034a.03.03 0 0 0 .014.016l.024.005.019-.002.013-.002v.107L.25.006A.2.2 0 0 1 .208.01a.15.15 0 0 1-.071-.016.1.1 0 0 1-.047-.05.2.2 0 0 1-.016-.091z" style="fill:currentColor;fill-rule:nonzero" transform="matrix(84.48235 0 0 96.8656 276.33 154.43)"/><path d="M.284-.121v-.245a.1.1 0 0 0-.006-.038L.262-.425.235-.431a.1.1 0 0 0-.03.007l-.017.021a.1.1 0 0 0-.006.033H.045q0-.035.014-.065a.2.2 0 0 1 .038-.054.2.2 0 0 1 .062-.036.2.2 0 0 1 .08-.013q.052 0 .094.018.041.018.064.056a.2.2 0 0 1 .024.1v.236q0 .043.005.072a.2.2 0 0 0 .014.048V0H.302a.2.2 0 0 1-.014-.055zM.3-.323l.001.082h-.05a.1.1 0 0 0-.059.024.1.1 0 0 0-.014.027.1.1 0 0 0-.005.032q0 .02.006.033l.016.02.025.007A.08.08 0 0 0 .284-.13q.008-.013.005-.025l.031.054a.2.2 0 0 1-.041.073.12.12 0 0 1-.09.038.16.16 0 0 1-.077-.02.14.14 0 0 1-.055-.055.16.16 0 0 1-.021-.083.2.2 0 0 1 .013-.072.2.2 0 0 1 .039-.056.2.2 0 0 1 .065-.035.3.3 0 0 1 .093-.012z" style="fill:currentColor;fill-rule:nonzero" transform="matrix(84.48235 0 0 96.8656 302.235 154.43)"/><path d="M.187-.411V0H.051v-.528H.18zm.125-.121L.31-.396.288-.399.265-.4a.1.1 0 0 0-.039.007.1.1 0 0 0-.026.021.1.1 0 0 0-.016.035.2.2 0 0 0-.007.046l-.026-.01q0-.051.008-.095a.3.3 0 0 1 .024-.075.14.14 0 0 1 .039-.049.1.1 0 0 1 .052-.018l.02.002z" style="fill:currentColor;fill-rule:nonzero" transform="matrix(84.48235 0 0 96.8656 342.042 154.43)"/><path d="M.194-.528V0H.057v-.528zM.051-.665a.07.07 0 0 1 .02-.053.08.08 0 0 1 .055-.02q.034 0 .054.02t.02.053a.07.07 0 0 1-.074.073.07.07 0 0 1-.055-.021.07.07 0 0 1-.02-.052" style="fill:currentColor;fill-rule:nonzero" transform="matrix(84.48235 0 0 96.8656 370.01 154.43)"/><path d="M.035-.246v-.036a.4.4 0 0 1 .015-.11.2.2 0 0 1 .043-.08.2.2 0 0 1 .067-.049.2.2 0 0 1 .088-.017q.05 0 .089.017a.2.2 0 0 1 .067.049.2.2 0 0 1 .043.08.4.4 0 0 1 .015.11v.036a.4.4 0 0 1-.015.109.2.2 0 0 1-.043.081.2.2 0 0 1-.067.049.2.2 0 0 1-.088.017.2.2 0 0 1-.088-.017.2.2 0 0 1-.068-.049.2.2 0 0 1-.043-.081.4.4 0 0 1-.015-.109m.137-.036v.036q0 .037.005.063a.1.1 0 0 0 .015.045q.01.018.024.026a.07.07 0 0 0 .066 0 .06.06 0 0 0 .024-.026.2.2 0 0 0 .015-.045.4.4 0 0 0 .004-.063v-.036A.3.3 0 0 0 .32-.345a.2.2 0 0 0-.015-.044.1.1 0 0 0-.024-.026.06.06 0 0 0-.065 0 .1.1 0 0 0-.024.026.1.1 0 0 0-.015.044.4.4 0 0 0-.005.063" style="fill:currentColor;fill-rule:nonzero" transform="matrix(84.48235 0 0 96.8656 391.296 154.43)"/><path d="M.064-.711h.142V0H.064z" style="fill:currentColor;fill-rule:nonzero" transform="matrix(85.24177 0 0 96.63821 -1.138 71.352)"/><path d="M.185-.416V0H.048v-.528h.128zm-.02.134-.037.001a.4.4 0 0 1 .011-.107.3.3 0 0 1 .036-.081.15.15 0 0 1 .128-.069q.032 0 .057.011a.1.1 0 0 1 .044.034.2.2 0 0 1 .029.062.4.4 0 0 1 .01.095V0H.306v-.337A.2.2 0 0 0 .299-.39a.05.05 0 0 0-.021-.026.1.1 0 0 0-.034-.008.06.06 0 0 0-.034.011.1.1 0 0 0-.026.03.2.2 0 0 0-.015.045.3.3 0 0 0-.004.056" style="fill:currentColor;fill-rule:nonzero" transform="matrix(85.24177 0 0 96.63821 21.879 71.352)"/><path d="M.285-.143a.04.04 0 0 0-.009-.024.4.4 0 0 0-.082-.048l-.065-.03A.2.2 0 0 1 .082-.28a.1.1 0 0 1-.029-.043.2.2 0 0 1-.009-.056.2.2 0 0 1 .012-.062.14.14 0 0 1 .036-.05.18.18 0 0 1 .133-.047q.06 0 .103.021.042.02.065.058a.15.15 0 0 1 .024.086H.28a.1.1 0 0 0-.006-.031.04.04 0 0 0-.017-.022.1.1 0 0 0-.032-.008l-.026.006a.04.04 0 0 0-.018.017.05.05 0 0 0-.002.044l.015.016.027.016.043.019a.4.4 0 0 1 .087.042.15.15 0 0 1 .05.053.15.15 0 0 1 .017.074.14.14 0 0 1-.013.063.14.14 0 0 1-.039.05.2.2 0 0 1-.061.033.3.3 0 0 1-.079.011.2.2 0 0 1-.108-.026.17.17 0 0 1-.089-.147h.13a.1.1 0 0 0 .01.041q.009.015.025.02t.034.006A.1.1 0 0 0 .26-.101a.04.04 0 0 0 .019-.016z" style="fill:currentColor;fill-rule:nonzero" transform="matrix(85.24177 0 0 96.63821 63.833 71.352)"/><path d="M.281-.528v.103H.012v-.103zM.074-.659H.21v.498q0 .021.004.034a.03.03 0 0 0 .014.016l.024.005.019-.002.013-.002v.107L.25.006A.2.2 0 0 1 .208.01a.15.15 0 0 1-.071-.016.1.1 0 0 1-.047-.05.2.2 0 0 1-.016-.091z" style="fill:currentColor;fill-rule:nonzero" transform="matrix(85.24177 0 0 96.63821 102.542 71.352)"/><path d="M.194-.528V0H.057v-.528zM.051-.665a.07.07 0 0 1 .02-.053.08.08 0 0 1 .055-.02q.034 0 .054.02t.02.053a.07.07 0 0 1-.074.073.07.07 0 0 1-.055-.021.07.07 0 0 1-.02-.052" style="fill:currentColor;fill-rule:nonzero" transform="matrix(85.24177 0 0 96.63821 128.68 71.352)"/><path d="M.281-.528v.103H.012v-.103zM.074-.659H.21v.498q0 .021.004.034a.03.03 0 0 0 .014.016l.024.005.019-.002.013-.002v.107L.25.006A.2.2 0 0 1 .208.01a.15.15 0 0 1-.071-.016.1.1 0 0 1-.047-.05.2.2 0 0 1-.016-.091z" style="fill:currentColor;fill-rule:nonzero" transform="matrix(85.24177 0 0 96.63821 150.157 71.352)"/><path d="M.306-.127v-.401h.137V0H.315zm.016-.109L.36-.237a.5.5 0 0 1-.01.099.3.3 0 0 1-.031.078.2.2 0 0 1-.051.051.14.14 0 0 1-.073.019.2.2 0 0 1-.06-.011.1.1 0 0 1-.046-.035.2.2 0 0 1-.031-.061.3.3 0 0 1-.01-.089v-.342h.137v.343q0 .021.003.036l.011.025q.007.01.016.014l.021.005a.07.07 0 0 0 .051-.017.1.1 0 0 0 .027-.047.3.3 0 0 0 .008-.067" style="fill:currentColor;fill-rule:nonzero" transform="matrix(85.24177 0 0 96.63821 176.296 71.352)"/><path d="M.281-.528v.103H.012v-.103zM.074-.659H.21v.498q0 .021.004.034a.03.03 0 0 0 .014.016l.024.005.019-.002.013-.002v.107L.25.006A.2.2 0 0 1 .208.01a.15.15 0 0 1-.071-.016.1.1 0 0 1-.047-.05.2.2 0 0 1-.016-.091z" style="fill:currentColor;fill-rule:nonzero" transform="matrix(85.24177 0 0 96.63821 218.21 71.352)"/><path d="M.035-.246v-.036a.4.4 0 0 1 .015-.11.2.2 0 0 1 .043-.08.2.2 0 0 1 .067-.049.2.2 0 0 1 .088-.017q.05 0 .089.017a.2.2 0 0 1 .067.049.2.2 0 0 1 .043.08.4.4 0 0 1 .015.11v.036a.4.4 0 0 1-.015.109.2.2 0 0 1-.043.081.2.2 0 0 1-.067.049.2.2 0 0 1-.088.017.2.2 0 0 1-.088-.017.2.2 0 0 1-.068-.049.2.2 0 0 1-.043-.081.4.4 0 0 1-.015-.109m.137-.036v.036q0 .037.005.063a.1.1 0 0 0 .015.045q.01.018.024.026a.07.07 0 0 0 .066 0 .06.06 0 0 0 .024-.026.2.2 0 0 0 .015-.045.4.4 0 0 0 .004-.063v-.036A.3.3 0 0 0 .32-.345a.2.2 0 0 0-.015-.044.1.1 0 0 0-.024-.026.06.06 0 0 0-.065 0 .1.1 0 0 0-.024.026.1.1 0 0 0-.015.044.4.4 0 0 0-.005.063" style="fill:currentColor;fill-rule:nonzero" transform="matrix(85.24177 0 0 96.63821 242.945 71.352)"/><path d="M.377-.711H.52v.488q0 .083-.03.134a.2.2 0 0 1-.083.075.3.3 0 0 1-.121.024.3.3 0 0 1-.122-.024.2.2 0 0 1-.082-.075.26.26 0 0 1-.03-.134v-.488h.143v.488q0 .046.01.072a.07.07 0 0 0 .031.034q.02.008.05.008t.05-.008a.06.06 0 0 0 .03-.034.2.2 0 0 0 .011-.072z" style="fill:currentColor;fill-rule:nonzero" transform="matrix(84.48235 0 0 96.8656 -.104 154.43)"/><path d="M.185-.416V0H.048v-.528h.128zm-.02.134-.037.001a.4.4 0 0 1 .011-.107.3.3 0 0 1 .036-.081.15.15 0 0 1 .128-.069q.032 0 .057.011a.1.1 0 0 1 .044.034.2.2 0 0 1 .029.062.4.4 0 0 1 .01.095V0H.306v-.337A.2.2 0 0 0 .299-.39a.05.05 0 0 0-.021-.026.1.1 0 0 0-.034-.008.06.06 0 0 0-.034.011.1.1 0 0 0-.026.03.2.2 0 0 0-.015.045.3.3 0 0 0-.004.056" style="fill:currentColor;fill-rule:nonzero" transform="matrix(84.48235 0 0 96.8656 48.118 154.43)"/><path d="M.194-.528V0H.057v-.528zM.051-.665a.07.07 0 0 1 .02-.053.08.08 0 0 1 .055-.02q.034 0 .054.02t.02.053a.07.07 0 0 1-.074.073.07.07 0 0 1-.055-.021.07.07 0 0 1-.02-.052" style="fill:currentColor;fill-rule:nonzero" transform="matrix(84.48235 0 0 96.8656 89.7 154.43)"/><path d="m.207-.106.084-.422h.143L.289 0H.204zM.156-.528l.087.423L.244 0H.158L.013-.528z" style="fill:currentColor;fill-rule:nonzero" transform="matrix(84.48235 0 0 96.8656 110.985 154.43)"/><path d="M.264.01a.3.3 0 0 1-.096-.017.2.2 0 0 1-.071-.048.2.2 0 0 1-.044-.076.3.3 0 0 1-.015-.103v-.043q0-.064.015-.114a.2.2 0 0 1 .041-.081.2.2 0 0 1 .067-.05.2.2 0 0 1 .088-.016q.05 0 .088.016A.16.16 0 0 1 .4-.473a.2.2 0 0 1 .038.081.5.5 0 0 1 .012.111v.062H.096v-.096h.22v-.012a.2.2 0 0 0-.007-.054.06.06 0 0 0-.022-.032Q.273-.425.249-.424a.1.1 0 0 0-.035.008.06.06 0 0 0-.023.026.2.2 0 0 0-.012.045l-.004.068v.043q0 .037.007.061.006.025.019.041.012.015.03.021a.15.15 0 0 0 .157-.041l.055.083a.2.2 0 0 1-.099.067.3.3 0 0 1-.08.012" style="fill:currentColor;fill-rule:nonzero" transform="matrix(84.48235 0 0 96.8656 148.286 154.43)"/><path d="M.187-.411V0H.051v-.528H.18zm.125-.121L.31-.396.288-.399.265-.4a.1.1 0 0 0-.039.007.1.1 0 0 0-.026.021.1.1 0 0 0-.016.035.2.2 0 0 0-.007.046l-.026-.01q0-.051.008-.095a.3.3 0 0 1 .024-.075.14.14 0 0 1 .039-.049.1.1 0 0 1 .052-.018l.02.002z" style="fill:currentColor;fill-rule:nonzero" transform="matrix(84.48235 0 0 96.8656 188.712 154.43)"/><path d="M.285-.143a.04.04 0 0 0-.009-.024.4.4 0 0 0-.082-.048l-.065-.03A.2.2 0 0 1 .082-.28a.1.1 0 0 1-.029-.043.2.2 0 0 1-.009-.056.2.2 0 0 1 .012-.062.14.14 0 0 1 .036-.05.18.18 0 0 1 .133-.047q.06 0 .103.021.042.02.065.058a.15.15 0 0 1 .024.086H.28a.1.1 0 0 0-.006-.031.04.04 0 0 0-.017-.022.1.1 0 0 0-.032-.008l-.026.006a.04.04 0 0 0-.018.017.05.05 0 0 0-.002.044l.015.016.027.016.043.019a.4.4 0 0 1 .087.042.15.15 0 0 1 .05.053.15.15 0 0 1 .017.074.14.14 0 0 1-.013.063.14.14 0 0 1-.039.05.2.2 0 0 1-.061.033.3.3 0 0 1-.079.011.2.2 0 0 1-.108-.026.17.17 0 0 1-.089-.147h.13a.1.1 0 0 0 .01.041q.009.015.025.02t.034.006A.1.1 0 0 0 .26-.101a.04.04 0 0 0 .019-.016z" style="fill:currentColor;fill-rule:nonzero" transform="matrix(84.48235 0 0 96.8656 216.68 154.43)"/><path d="M.194-.528V0H.057v-.528zM.051-.665a.07.07 0 0 1 .02-.053.08.08 0 0 1 .055-.02q.034 0 .054.02t.02.053a.07.07 0 0 1-.074.073.07.07 0 0 1-.055-.021.07.07 0 0 1-.02-.052" style="fill:currentColor;fill-rule:nonzero" transform="matrix(84.48235 0 0 96.8656 255.044 154.43)"/><path d="M.281-.528v.103H.012v-.103zM.074-.659H.21v.498q0 .021.004.034a.03.03 0 0 0 .014.016l.024.005.019-.002.013-.002v.107L.25.006A.2.2 0 0 1 .208.01a.15.15 0 0 1-.071-.016.1.1 0 0 1-.047-.05.2.2 0 0 1-.016-.091z" style="fill:currentColor;fill-rule:nonzero" transform="matrix(84.48235 0 0 96.8656 276.33 154.43)"/><path d="M.284-.121v-.245a.1.1 0 0 0-.006-.038L.262-.425.235-.431a.1.1 0 0 0-.03.007l-.017.021a.1.1 0 0 0-.006.033H.045q0-.035.014-.065a.2.2 0 0 1 .038-.054.2.2 0 0 1 .062-.036.2.2 0 0 1 .08-.013q.052 0 .094.018.041.018.064.056a.2.2 0 0 1 .024.1v.236q0 .043.005.072a.2.2 0 0 0 .014.048V0H.302a.2.2 0 0 1-.014-.055zM.3-.323l.001.082h-.05a.1.1 0 0 0-.059.024.1.1 0 0 0-.014.027.1.1 0 0 0-.005.032q0 .02.006.033l.016.02.025.007A.08.08 0 0 0 .284-.13q.008-.013.005-.025l.031.054a.2.2 0 0 1-.041.073.12.12 0 0 1-.09.038.16.16 0 0 1-.077-.02.14.14 0 0 1-.055-.055.16.16 0 0 1-.021-.083.2.2 0 0 1 .013-.072.2.2 0 0 1 .039-.056.2.2 0 0 1 .065-.035.3.3 0 0 1 .093-.012z" style="fill:currentColor;fill-rule:nonzero" transform="matrix(84.48235 0 0 96.8656 302.235 154.43)"/><path d="M.187-.411V0H.051v-.528H.18zm.125-.121L.31-.396.288-.399.265-.4a.1.1 0 0 0-.039.007.1.1 0 0 0-.026.021.1.1 0 0 0-.016.035.2.2 0 0 0-.007.046l-.026-.01q0-.051.008-.095a.3.3 0 0 1 .024-.075.14.14 0 0 1 .039-.049.1.1 0 0 1 .052-.018l.02.002z" style="fill:currentColor;fill-rule:nonzero" transform="matrix(84.48235 0 0 96.8656 342.042 154.43)"/><path d="M.194-.528V0H.057v-.528zM.051-.665a.07.07 0 0 1 .02-.053.08.08 0 0 1 .055-.02q.034 0 .054.02t.02.053a.07.07 0 0 1-.074.073.07.07 0 0 1-.055-.021.07.07 0 0 1-.02-.052" style="fill:currentColor;fill-rule:nonzero" transform="matrix(84.48235 0 0 96.8656 370.01 154.43)"/><path d="M.035-.246v-.036a.4.4 0 0 1 .015-.11.2.2 0 0 1 .043-.08.2.2 0 0 1 .067-.049.2.2 0 0 1 .088-.017q.05 0 .089.017a.2.2 0 0 1 .067.049.2.2 0 0 1 .043.08.4.4 0 0 1 .015.11v.036a.4.4 0 0 1-.015.109.2.2 0 0 1-.043.081.2.2 0 0 1-.067.049.2.2 0 0 1-.088.017.2.2 0 0 1-.088-.017.2.2 0 0 1-.068-.049.2.2 0 0 1-.043-.081.4.4 0 0 1-.015-.109m.137-.036v.036q0 .037.005.063a.1.1 0 0 0 .015.045q.01.018.024.026a.07.07 0 0 0 .066 0 .06.06 0 0 0 .024-.026.2.2 0 0 0 .015-.045.4.4 0 0 0 .004-.063v-.036A.3.3 0 0 0 .32-.345a.2.2 0 0 0-.015-.044.1.1 0 0 0-.024-.026.06.06 0 0 0-.065 0 .1.1 0 0 0-.024.026.1.1 0 0 0-.015.044.4.4 0 0 0-.005.063" style="fill:currentColor;fill-rule:nonzero" transform="matrix(84.48235 0 0 96.8656 391.296 154.43)"/><path d="M.064-.711h.142V0H.064z" style="fill:currentColor;fill-rule:nonzero" transform="matrix(85.24177 0 0 96.63821 -1.138 71.352)"/><path d="M.185-.416V0H.048v-.528h.128zm-.02.134-.037.001a.4.4 0 0 1 .011-.107.3.3 0 0 1 .036-.081.15.15 0 0 1 .128-.069q.032 0 .057.011a.1.1 0 0 1 .044.034.2.2 0 0 1 .029.062.4.4 0 0 1 .01.095V0H.306v-.337A.2.2 0 0 0 .299-.39a.05.05 0 0 0-.021-.026.1.1 0 0 0-.034-.008.06.06 0 0 0-.034.011.1.1 0 0 0-.026.03.2.2 0 0 0-.015.045.3.3 0 0 0-.004.056" style="fill:currentColor;fill-rule:nonzero" transform="matrix(85.24177 0 0 96.63821 21.879 71.352)"/><path d="M.285-.143a.04.04 0 0 0-.009-.024.4.4 0 0 0-.082-.048l-.065-.03A.2.2 0 0 1 .082-.28a.1.1 0 0 1-.029-.043.2.2 0 0 1-.009-.056.2.2 0 0 1 .012-.062.14.14 0 0 1 .036-.05.18.18 0 0 1 .133-.047q.06 0 .103.021.042.02.065.058a.15.15 0 0 1 .024.086H.28a.1.1 0 0 0-.006-.031.04.04 0 0 0-.017-.022.1.1 0 0 0-.032-.008l-.026.006a.04.04 0 0 0-.018.017.05.05 0 0 0-.002.044l.015.016.027.016.043.019a.4.4 0 0 1 .087.042.15.15 0 0 1 .05.053.15.15 0 0 1 .017.074.14.14 0 0 1-.013.063.14.14 0 0 1-.039.05.2.2 0 0 1-.061.033.3.3 0 0 1-.079.011.2.2 0 0 1-.108-.026.17.17 0 0 1-.089-.147h.13a.1.1 0 0 0 .01.041q.009.015.025.02t.034.006A.1.1 0 0 0 .26-.101a.04.04 0 0 0 .019-.016z" style="fill:currentColor;fill-rule:nonzero" transform="matrix(85.24177 0 0 96.63821 63.833 71.352)"/><path d="M.281-.528v.103H.012v-.103zM.074-.659H.21v.498q0 .021.004.034a.03.03 0 0 0 .014.016l.024.005.019-.002.013-.002v.107L.25.006A.2.2 0 0 1 .208.01a.15.15 0 0 1-.071-.016.1.1 0 0 1-.047-.05.2.2 0 0 1-.016-.091z" style="fill:currentColor;fill-rule:nonzero" transform="matrix(85.24177 0 0 96.63821 102.542 71.352)"/><path d="M.194-.528V0H.057v-.528zM.051-.665a.07.07 0 0 1 .02-.053.08.08 0 0 1 .055-.02q.034 0 .054.02t.02.053a.07.07 0 0 1-.074.073.07.07 0 0 1-.055-.021.07.07 0 0 1-.02-.052" style="fill:currentColor;fill-rule:nonzero" transform="matrix(85.24177 0 0 96.63821 128.68 71.352)"/><path d="M.281-.528v.103H.012v-.103zM.074-.659H.21v.498q0 .021.004.034a.03.03 0 0 0 .014.016l.024.005.019-.002.013-.002v.107L.25.006A.2.2 0 0 1 .208.01a.15.15 0 0 1-.071-.016.1.1 0 0 1-.047-.05.2.2 0 0 1-.016-.091z" style="fill:currentColor;fill-rule:nonzero" transform="matrix(85.24177 0 0 96.63821 150.157 71.352)"/><path d="M.306-.127v-.401h.137V0H.315zm.016-.109L.36-.237a.5.5 0 0 1-.01.099.3.3 0 0 1-.031.078.2.2 0 0 1-.051.051.14.14 0 0 1-.073.019.2.2 0 0 1-.06-.011.1.1 0 0 1-.046-.035.2.2 0 0 1-.031-.061.3.3 0 0 1-.01-.089v-.342h.137v.343q0 .021.003.036l.011.025q.007.01.016.014l.021.005a.07.07 0 0 0 .051-.017.1.1 0 0 0 .027-.047.3.3 0 0 0 .008-.067" style="fill:currentColor;fill-rule:nonzero" transform="matrix(85.24177 0 0 96.63821 176.296 71.352)"/><path d="M.281-.528v.103H.012v-.103zM.074-.659H.21v.498q0 .021.004.034a.03.03 0 0 0 .014.016l.024.005.019-.002.013-.002v.107L.25.006A.2.2 0 0 1 .208.01a.15.15 0 0 1-.071-.016.1.1 0 0 1-.047-.05.2.2 0 0 1-.016-.091z" style="fill:currentColor;fill-rule:nonzero" transform="matrix(85.24177 0 0 96.63821 218.21 71.352)"/><path d="M.035-.246v-.036a.4.4 0 0 1 .015-.11.2.2 0 0 1 .043-.08.2.2 0 0 1 .067-.049.2.2 0 0 1 .088-.017q.05 0 .089.017a.2.2 0 0 1 .067.049.2.2 0 0 1 .043.08.4.4 0 0 1 .015.11v.036a.4.4 0 0 1-.015.109.2.2 0 0 1-.043.081.2.2 0 0 1-.067.049.2.2 0 0 1-.088.017.2.2 0 0 1-.088-.017.2.2 0 0 1-.068-.049.2.2 0 0 1-.043-.081.4.4 0 0 1-.015-.109m.137-.036v.036q0 .037.005.063a.1.1 0 0 0 .015.045q.01.018.024.026a.07.07 0 0 0 .066 0 .06.06 0 0 0 .024-.026.2.2 0 0 0 .015-.045.4.4 0 0 0 .004-.063v-.036A.3.3 0 0 0 .32-.345a.2.2 0 0 0-.015-.044.1.1 0 0 0-.024-.026.06.06 0 0 0-.065 0 .1.1 0 0 0-.024.026.1.1 0 0 0-.015.044.4.4 0 0 0-.005.063" style="fill:currentColor;fill-rule:nonzero" transform="matrix(85.24177 0 0 96.63821 242.945 71.352)"/></svg>
